<?xml version="1.0" encoding="utf-8"?>
<!-- Generator: Adobe Illustrator 21.0.2, SVG Export Plug-In . SVG Version: 6.00 Build 0)  -->
<svg version="1.1" id="Layer_1" xmlns="http://www.w3.org/2000/svg" xmlns:xlink="http://www.w3.org/1999/xlink" x="0px" y="0px"
	 viewBox="0 0 512 512" style="enable-background:new 0 0 512 512;" xml:space="preserve">
<g id="BiZyRL.tif">
	<g>
		<path d="M34,506c-2.1-11.3-4.1-22.6-6.4-33.8c-6.5-31.4-13.2-62.8-19.8-94.2c-1.2-5.6-1.1-5.6,4.7-5.6c162.4,0,324.8,0,487.2,0
			c5.9,0,5.9,0.1,4.7,5.6c-8.6,40.7-17.1,81.4-25.7,122.1c-0.4,1.9-0.4,4-0.6,6C330.1,506,182,506,34,506z M255.8,447.9
			C255.8,447.8,255.8,447.8,255.8,447.9c13.1-0.1,26.3,0.2,39.4-0.2c8.8-0.3,15-7.5,14.8-16.1c-0.2-8.5-6.8-15.3-15.5-15.4
			c-25.7-0.1-51.4-0.1-77,0c-9.9,0.1-16.8,8.7-15.1,18.5c1.3,7.7,7.2,12.9,15.9,13C230.7,448,243.3,447.9,255.8,447.9z"/>
		<path d="M413.8,6c3.9,14,7.6,28,11.6,42c10.7,37.5,21.5,74.9,32.3,112.3c1.5,5.2,1.5,5.3-4.1,5.3c-12.9,0-25.9-0.2-38.8,0.1
			c-4.4,0.1-6.2-1.2-7.4-5.6c-9.3-33.4-19.1-66.7-28.5-100.2c-1.2-4.4-3-5.5-7.4-5.5c-77.1,0.1-154.1,0.1-231.2,0
			c-4.5,0-6,1.5-7.2,5.7c-9.2,33.3-18.9,66.4-28.1,99.7c-1.3,4.5-3.2,6-7.9,5.9c-12.9-0.3-25.9-0.1-38.8-0.1c-5.5,0-5.5-0.1-4-5.3
			C68.7,110.8,83,61.3,97.2,11.9C97.8,10,97.9,8,98.3,6C203.5,6,308.6,6,413.8,6z"/>
		<path d="M256.7,202.8c80.5,0,161,0,241.5,0c7.5,0,7.4,0,6,7.3c-7.8,40-15.7,80.1-23.2,120.2c-0.9,4.6-2.7,5.3-6.8,5.3
			c-39.8-0.1-79.7-0.1-119.5-0.1c-105,0-210,0-314.9,0c-7.4,0-7.4,0-8.8-7.1c-7.8-40-15.6-80.1-23.3-120.1c-1-5.4-0.9-5.5,5.8-5.5
			C94.4,202.8,175.5,202.8,256.7,202.8z M256.3,246.9c-12.9,0-25.8-0.1-38.7,0.1c-8.5,0.1-14.6,6-15.4,14.1
			c-0.8,8.4,4.4,15.4,12.8,17.1c2.5,0.5,5.2,0.6,7.8,0.6c13.5,0.1,27,0,40.6,0c10.1,0,20.2,0.3,30.3-0.2
			c10.3-0.5,16.7-7.3,16.4-16.5c-0.3-9.3-7-15.2-17.4-15.3C280.5,246.9,268.4,246.9,256.3,246.9z"/>
		<path d="M256.1,165.6c-37.6,0-75.2,0-112.7,0c-6.3,0-6.3,0-4.6-6.3c2.1-7.6,4.5-15.1,6.4-22.7c0.7-2.9,2.1-4.1,5-3.8
			c1.4,0.1,2.8,0,4.2,0c68.3,0,136.6,0.1,204.9-0.1c5,0,7.5,1.2,8.6,6.4c1.5,7.3,3.6,14.5,6.1,21.5c1.5,4.4,0.1,5.1-3.9,5
			c-20.8-0.1-41.6-0.1-62.4-0.1C290.4,165.6,273.3,165.6,256.1,165.6z"/>
		<path d="M256.2,112.6c-32.5,0-65.1,0-97.6,0c-6.5,0-6.6,0-4.9-6.1c1.7-6,3.5-12,5-18.1c0.6-2.7,1.8-3.8,4.5-3.6
			c1.6,0.1,3.2,0,4.8,0c59.4,0,118.9,0.1,178.3-0.1c4.7,0,6.8,1.3,7.8,5.8c1.3,5.7,3,11.3,4.7,16.9c1.2,3.8,0.6,5.2-3.9,5.2
			c-23.4-0.2-46.9-0.1-70.4-0.1C275.2,112.6,265.7,112.6,256.2,112.6z"/>
	</g>
</g>
</svg>
