<?xml version="1.0" encoding="utf-8"?>
<!-- Generator: Adobe Illustrator 21.1.0, SVG Export Plug-In . SVG Version: 6.00 Build 0)  -->
<svg version="1.1" id="Layer_1" xmlns="http://www.w3.org/2000/svg" xmlns:xlink="http://www.w3.org/1999/xlink" x="0px" y="0px"
	 viewBox="0 0 512 512" style="enable-background:new 0 0 512 512;" xml:space="preserve">
<g>
	<path d="M423,250c25.8,0,46.8,21,46.8,46.8c0,25.8-21,46.8-46.8,46.8c-25.8,0-46.8-21-46.8-46.8C376.2,271,397.2,250,423,250
		 M423,234.4c-34.5,0-62.4,28-62.4,62.4s28,62.4,62.4,62.4s62.4-28,62.4-62.4S457.5,234.4,423,234.4L423,234.4z"/>
	<path d="M46.1,115.7h15.2V21.6H48.2V6h29v109.7h15.2v15.2H46.1V115.7z"/>
	<path d="M66.2,303.3h31.1v-17.6h15v33H28.3c7.9-7.8,15.5-15.5,22.8-22.9c7.4-7.4,13.9-14.5,19.6-21.4c5.7-6.9,10.3-13.6,13.7-20.1
		c3.4-6.5,5.1-12.7,5.1-18.7c0-4.7-0.8-8.7-2.3-12c-1.5-3.3-3.5-6-5.8-8.2c-2.4-2.1-4.9-3.7-7.7-4.7c-2.7-1-5.3-1.5-7.6-1.5
		c-4.8,0-8.8,0.8-11.9,2.5c-3.1,1.6-5.5,3.7-7.3,6.1c-1.8,2.4-3,4.9-3.7,7.6c-0.7,2.7-1.1,5-1.1,7c0,4.2,0.6,7.9,1.9,11.1
		c1.3,3.2,3.2,6.1,5.6,8.6l-9.5,9.7c-2.2-1.4-4.1-3.3-5.8-5.6c-1.7-2.3-3.2-4.9-4.4-7.6c-1.2-2.7-2.1-5.5-2.8-8.4
		c-0.6-2.8-0.9-5.5-0.9-7.9c0-5.1,0.9-9.9,2.6-14.6c1.7-4.7,4.2-8.8,7.6-12.3c3.4-3.5,7.5-6.4,12.4-8.4c4.9-2.1,10.6-3.1,17.1-3.1
		c5.8,0,11.1,1.1,15.9,3.2c4.8,2.2,8.9,5,12.3,8.6c3.4,3.6,6.1,7.8,8,12.5c1.9,4.7,2.8,9.8,2.8,15.1c0,6.3-1.1,12.4-3.3,18.3
		c-2.2,5.9-5.1,11.7-8.7,17.6c-3.6,5.8-7.8,11.5-12.4,17.2C76.1,291.9,71.3,297.6,66.2,303.3z"/>
	<path d="M51.7,442.6l26.4-46.1H57.1v9.1h-15v-24.5h62.4l-27.1,45.2c4.2,1.5,8,3.5,11.4,6c3.4,2.5,6.4,5.3,8.9,8.6
		c2.5,3.3,4.5,7,5.9,11c1.4,4.1,2.1,8.4,2.1,12.9c0,5.7-1.1,11-3.3,16c-2.2,5-5.2,9.4-9,13.1c-3.8,3.7-8.2,6.7-13.2,8.8
		c-5,2.1-10.3,3.2-16,3.2c-6.1,0-11.7-1.2-16.9-3.7c-5.2-2.5-9.7-5.7-13.5-9.8l11.6-10.8c2.3,2.8,5,5,8.3,6.5
		c3.2,1.6,6.7,2.4,10.5,2.4c3.5,0,6.9-0.7,10-2.1c3.1-1.4,5.8-3.3,8.2-5.6c2.3-2.3,4.2-5.1,5.6-8.2c1.4-3.1,2.1-6.4,2.1-10
		c0-3.5-0.7-6.9-2.1-10c-1.4-3.1-3.3-5.8-5.6-8.1c-2.3-2.3-5.1-4.1-8.2-5.4c-3.1-1.3-6.4-2-10-2C59.5,439.4,55.4,440.5,51.7,442.6z"
		/>
	<path d="M426.8,30.7v93.7h-93.7V30.7H426.8 M442.5,15.1H317.6V140h124.9V15.1L442.5,15.1z"/>
	<path d="M406.5,415.7l37,74.3h-74.1L406.5,415.7 M406.5,380.7l-62.3,124.9h124.5L406.5,380.7L406.5,380.7z"/>
	<polygon points="355.5,262.1 127.5,74.8 136,62.3 364.1,249.6 	"/>
	<polygon points="355.5,449.4 127.5,262.1 136,249.6 364.1,436.9 	"/>
	<polygon points="137.7,447.5 125.8,438.8 303.8,147.2 315.7,155.9 	"/>
</g>
</svg>
