<?xml version="1.0" encoding="utf-8"?>
<!-- Generator: Adobe Illustrator 21.0.2, SVG Export Plug-In . SVG Version: 6.00 Build 0)  -->
<svg version="1.1" id="Layer_1" xmlns="http://www.w3.org/2000/svg" xmlns:xlink="http://www.w3.org/1999/xlink" x="0px" y="0px"
	 viewBox="0 0 512 512" style="enable-background:new 0 0 512 512;" xml:space="preserve">
<g id="zkLPlE.tif">
	<g>
		<path d="M6,248.1C6,194,6,140,6,85.9C6,64,20.6,49.4,42.3,49.4c41.6,0,83.1,0.1,124.7,0c19.1,0,35.3,6.8,48.8,20.1
			c9.4,9.3,18.8,18.7,28.1,28.1c13.8,14,30.6,20.6,50.2,20.6c29.7,0,59.5,0,89.2,0c21.3,0,36,14.8,36,36.2c0,9.5-0.1,19,0.1,28.5
			c0.1,3.5-1.1,4.7-4.6,4.7c-8.6-0.2-17.2-0.2-25.8,0c-3.5,0.1-4.7-1.1-4.6-4.6c0.2-8.1-0.2-16.1,0.1-24.2c0.2-4.4-1.1-5.8-5.7-5.8
			c-28.5,0.2-57,0-85.4,0.1c-28.9,0.1-53.4-10.1-73.9-30.4c-9.4-9.3-18.8-18.7-28.1-28.1c-6.9-7.1-15.3-10.3-25.1-10.3
			c-39.9,0-79.9,0.1-119.8-0.1c-4.7,0-5.6,1.6-5.6,5.9c0.1,105.9,0.1,211.7,0.1,317.6c0,15.6,12.7,23.3,26.5,16.2
			c8.6-4.4,13.6-11.7,17.1-20.5c23.2-58.2,46.5-116.3,69.8-174.5c7-17.6,17.6-24.7,36.7-24.7c92.6,0,185.2,0.5,277.8-0.3
			c25.2-0.2,45,24.2,34.2,50.3c-22.5,54.4-43.9,109.3-65.8,163.9c-11.6,28.8-35.1,44.6-66.3,44.6c-103.7,0-207.4,0-311.1,0
			C28.2,462.6,6,440.4,6,408.8C6,355.3,6,301.7,6,248.1z"/>
	</g>
</g>
</svg>
