<?xml version="1.0" encoding="utf-8"?>
<!-- Generator: Adobe Illustrator 21.0.2, SVG Export Plug-In . SVG Version: 6.00 Build 0)  -->
<svg version="1.1" id="Layer_1" xmlns="http://www.w3.org/2000/svg" xmlns:xlink="http://www.w3.org/1999/xlink" x="0px" y="0px"
	 viewBox="0 0 512 512" style="enable-background:new 0 0 512 512;" xml:space="preserve">
<g id="Stuey7.tif">
	<g>
		<path d="M117.4,506c-4.9-83.7-9.8-167.4-14.8-251c-1.9-32.8-4.1-65.5-6.2-99.4c-12.7-0.7-23.4-1.3-35.7-1.9c0-14.3,0-28.2,0-43.2
			c130.2,0,259.8,0,390.6,0c0,14.4,0,27.8,0,42.9c-11.7,0.8-23,1.5-36.1,2.3c-2.1,33.8-4.4,66.5-6.3,99.3
			c-4.9,83.7-9.8,167.4-14.7,251C301.9,506,209.6,506,117.4,506z M141.9,156.1c6.4,101.7,12.6,202.1,18.9,303.4c9.6,0,17.5,0,28.1,0
			c-2.1-101.5-4.2-202.1-6.4-303.4C168.4,156.1,156.3,156.1,141.9,156.1z M350.8,459.7c6.3-102.6,12.6-202.9,18.8-303.3
			c-15.4,0-27.3,0-40.6,0c-2.1,102-4.2,202.6-6.2,303.3C333.7,459.7,341.1,459.7,350.8,459.7z M235.3,155.9
			c2.2,102.2,4.5,202.8,6.6,302.9c10.8,0,18.7,0,27.8,0c2.2-101.7,4.3-201.8,6.4-302.9C262.1,155.9,250.6,155.9,235.3,155.9z"/>
		<path d="M290.9,6c0,10.2,0,20.4,0,33c42.8,0,83.6,0,125.9,0c0,15.8,0,29.1,0,44.1c-106.9,0-213.7,0-322,0c0-13.4,0-26.8,0-42.7
			c40.7,0,81.6,0,124.3,0c0.6-13,1.1-23.8,1.6-34.5C244.1,6,267.5,6,290.9,6z"/>
	</g>
</g>
</svg>
